<svg width="282" height="52" viewBox="0 0 282 52" fill="none" xmlns="http://www.w3.org/2000/svg">
<g clip-path="url(#clip0_3897_790)">
<mask id="path-1-inside-1_3897_790" fill="white">
<path d="M106.948 43.2012V42.411V1.3197V43.2012Z"/>
</mask>
<path d="M108.192 43.2012V42.411H105.704V43.2012H108.192ZM108.192 42.411V1.3197H105.704V42.411H108.192ZM105.704 1.3197V43.2012H108.192V1.3197H105.704Z" fill="#161637" mask="url(#path-1-inside-1_3897_790)"/>
<path d="M126.806 3.16086C126.751 2.40225 126.577 1.88071 126.308 1.59623C126.032 1.31176 125.542 1.16952 124.815 1.16952V0.877136H131.453V1.16952C130.773 1.16952 130.228 1.39078 129.833 1.8412C129.43 2.29162 129.232 2.96331 129.232 3.85625V16.1362C129.232 19.3682 128.639 21.7942 127.462 23.3983C126.285 25.0025 124.475 25.9823 122.041 26.3379L121.954 26.0455C123.44 25.5003 124.625 24.5283 125.534 23.1217C126.443 21.7152 126.893 19.5737 126.893 16.6894V7.42013C126.893 5.33396 126.861 3.91157 126.806 3.15296V3.16086Z" fill="#161637"/>
<path d="M155.696 20.4982C156.123 20.9249 156.708 21.1383 157.451 21.1383V21.4623H150.639V21.1383C151.319 21.1383 151.84 20.9328 152.204 20.5061C152.567 20.0873 152.749 19.2813 152.749 18.096V1.8412L146.056 21.7231H145.763L137.608 3.6508V14.2318C137.608 15.9703 137.711 17.3295 137.932 18.3093C138.146 19.2971 138.517 20.0083 139.047 20.4587C139.576 20.9091 140.311 21.1304 141.267 21.1304V21.4544H133.286V21.1304C134.361 21.1304 135.182 20.9012 135.759 20.4429C136.336 19.9846 136.731 19.2655 136.96 18.2777C137.19 17.2899 137.3 15.9466 137.3 14.2318V3.07394C136.968 2.50498 136.605 2.08617 136.202 1.81749C135.799 1.54092 135.451 1.37497 135.151 1.31966C134.851 1.26434 134.495 1.22483 134.084 1.20113V0.877136H139.11L146.972 18.2698L152.765 0.877136H157.324V1.20113C156.621 1.20113 156.068 1.38288 155.673 1.75428C155.27 2.12568 155.072 2.79736 155.072 3.76933V18.096C155.072 19.2655 155.286 20.0636 155.712 20.4903L155.696 20.4982Z" fill="#161637"/>
<path d="M160.082 16.5076C160.612 15.9545 161.37 15.4882 162.366 15.101C163.362 14.7138 164.816 14.2871 166.72 13.7972V12.1614C166.72 10.9366 166.499 9.95671 166.064 9.23762C165.629 8.51852 165.005 8.15502 164.207 8.15502C163.757 8.15502 163.29 8.26565 162.8 8.47901C162.429 8.65286 162.137 8.83461 161.923 9.01636C161.71 9.19811 161.576 9.35615 161.512 9.48258C161.457 9.60902 161.457 9.68014 161.512 9.70384C161.86 9.75916 162.129 9.9093 162.303 10.1464C162.477 10.3834 162.563 10.6363 162.563 10.905C162.563 11.2764 162.413 11.6004 162.129 11.869C161.892 12.0429 161.639 12.1298 161.37 12.1298C160.999 12.1298 160.691 11.9718 160.438 11.6636C160.264 11.4265 160.177 11.1578 160.177 10.8418C160.177 10.6837 160.209 10.5415 160.264 10.4071C160.73 9.5458 161.489 8.8267 162.548 8.24194C162.959 8.02858 163.409 7.87844 163.907 7.79152C164.405 7.7046 164.839 7.67299 165.211 7.68879C166.554 7.68879 167.494 8.19453 168.032 9.19811C168.569 10.2017 168.838 11.6478 168.838 13.5364V18.7992C168.838 19.2497 168.94 19.6527 169.146 20.0162C169.351 20.3797 169.667 20.5535 170.094 20.5535C170.292 20.5535 170.481 20.4824 170.663 20.3323C170.845 20.1821 170.971 19.9609 171.027 19.6448L171.319 19.7633C171.224 20.269 170.956 20.7274 170.529 21.1225C170.102 21.5176 169.565 21.723 168.925 21.723C168.379 21.723 167.882 21.5176 167.431 21.1067C166.981 20.6958 166.752 20.0636 166.728 19.2023C166.53 19.9451 166.056 20.5456 165.298 21.0118C164.539 21.4781 163.654 21.7151 162.635 21.7151C161.773 21.7151 161.007 21.4702 160.327 20.9723C159.648 20.4745 159.308 19.708 159.308 18.6807C159.308 17.7878 159.569 17.0608 160.098 16.4997L160.082 16.5076ZM162.658 15.7727C161.781 16.4286 161.339 17.2188 161.339 18.1592C161.339 18.9178 161.56 19.5262 161.994 19.9688C162.429 20.4192 163.053 20.6404 163.851 20.6404C165.155 20.6404 166.111 19.9767 166.72 18.6491V14.1133C164.887 14.5637 163.535 15.1089 162.658 15.7648V15.7727Z" fill="#161637"/>
<path d="M180.975 7.89427C181.22 8.0128 181.418 8.17875 181.576 8.39211C181.734 8.64498 181.813 8.88994 181.813 9.12701C181.813 9.57743 181.6 9.95674 181.173 10.2649C180.96 10.3993 180.715 10.4704 180.438 10.4704C179.948 10.4704 179.561 10.2649 179.269 9.85401C179.15 9.64065 179.095 9.41149 179.095 9.18232L179.126 8.83463C179.126 8.66078 178.913 8.65288 178.502 8.81882C178.083 8.98477 177.641 9.28505 177.175 9.71177C176.708 10.1385 176.345 10.66 176.092 11.2606V19.1549C176.092 19.7238 176.124 20.1189 176.179 20.356C176.234 20.5931 176.337 20.759 176.487 20.8538C176.629 20.9487 176.898 21.0514 177.293 21.1462V21.4702H172.907V21.1462C173.295 21.0277 173.571 20.917 173.729 20.8064C173.887 20.6958 173.982 20.5298 174.022 20.3086C174.061 20.0873 174.077 19.7001 174.077 19.1549V10.2333C174.077 9.70387 173.982 9.33247 173.785 9.1112C173.587 8.88994 173.2 8.7398 172.615 8.66078V8.3684L176.092 7.69672V10.6205C176.503 9.76708 177.111 9.06379 177.933 8.51854C178.755 7.97329 179.529 7.72042 180.272 7.75993C180.501 7.74413 180.746 7.79154 180.991 7.91008L180.975 7.89427Z" fill="#161637"/>
<path d="M189.731 20.2217C190.063 19.9609 190.284 19.6448 190.403 19.2734L190.64 19.3603C190.466 20.0241 190.111 20.5852 189.573 21.0435C189.036 21.5018 188.396 21.731 187.661 21.731C186.547 21.731 185.717 21.407 185.172 20.7511C184.626 20.0952 184.35 18.9336 184.35 17.2583V8.28148H182.856L182.825 7.95749H184.342V3.65871L186.357 3.36633V7.95749H189.81L189.755 8.28148H186.365V17.1714C186.365 18.4358 186.562 19.3287 186.95 19.8503C187.337 20.3639 187.898 20.6247 188.617 20.6247C189.028 20.6247 189.399 20.4903 189.731 20.2296V20.2217Z" fill="#161637"/>
<path d="M195.46 20.3481C195.516 20.5852 195.618 20.7511 195.768 20.8459C195.919 20.9408 196.179 21.0435 196.574 21.1383V21.4623H192.189V21.1383C192.576 21.0198 192.853 20.9091 193.011 20.7985C193.169 20.6879 193.263 20.5219 193.303 20.3007C193.342 20.0794 193.358 19.6922 193.358 19.147V10.2254C193.358 9.69597 193.263 9.32457 193.082 9.10331C192.9 8.88205 192.513 8.73191 191.928 8.65288V8.3605L195.381 7.68882V19.147C195.381 19.7159 195.413 20.111 195.468 20.3481H195.46ZM193.208 3.07395C193.437 2.83689 193.722 2.72626 194.054 2.72626C194.401 2.72626 194.702 2.84479 194.947 3.08976C195.192 3.33472 195.31 3.6271 195.31 3.9827C195.31 4.31459 195.184 4.59907 194.931 4.84404C194.678 5.08901 194.386 5.20754 194.054 5.20754C193.722 5.20754 193.437 5.08901 193.208 4.84404C192.971 4.59907 192.853 4.31459 192.853 3.9827C192.853 3.6113 192.971 3.31102 193.208 3.07395Z" fill="#161637"/>
<path d="M210.079 20.3323C210.135 20.5773 210.245 20.7511 210.403 20.8617C210.561 20.9724 210.822 21.0751 211.193 21.1699V21.4623H206.839V21.1699C207.227 21.0514 207.503 20.9329 207.661 20.8222C207.819 20.7116 207.914 20.5377 207.954 20.3086C207.993 20.0873 208.009 19.7001 208.009 19.1549V12.5724C208.009 11.4028 207.724 10.4783 207.147 9.8066C206.571 9.13491 205.757 8.79512 204.706 8.79512C203.947 8.79512 203.275 9.07169 202.691 9.61694C202.106 10.1622 201.703 10.747 201.49 11.3712V19.1786C201.49 19.7238 201.521 20.111 201.576 20.3481C201.632 20.5852 201.734 20.7511 201.885 20.8459C202.027 20.9408 202.296 21.0435 202.691 21.1383V21.4623H198.305V21.1383C198.692 21.0198 198.969 20.9091 199.127 20.7985C199.285 20.6879 199.38 20.5298 199.419 20.3165C199.459 20.1031 199.474 19.7238 199.474 19.1786V10.2333C199.474 9.70387 199.38 9.33247 199.182 9.1112C198.985 8.88994 198.597 8.7398 198.013 8.66078V8.3684L201.49 7.69672V10.7074C201.782 9.86981 202.343 9.15862 203.173 8.57386C204.002 7.9891 204.872 7.69672 205.788 7.69672C207.092 7.69672 208.119 8.07602 208.87 8.83463C209.621 9.59324 210 10.8023 210 12.4617V19.1549C210 19.7001 210.032 20.0952 210.087 20.3402L210.079 20.3323Z" fill="#161637"/>
<path d="M232.11 14.0817C232.687 15.03 232.972 15.9782 232.972 16.9344C232.972 17.8273 232.758 18.6333 232.332 19.3287C231.945 19.9925 231.273 20.5536 230.332 21.0277C229.384 21.4939 228.183 21.731 226.721 21.731C225.259 21.731 224.034 21.5809 222.92 21.2806C221.806 20.9803 220.921 20.601 220.257 20.1585V14.5479H220.55C220.605 16.1442 220.818 17.4401 221.174 18.42C221.537 19.4078 222.146 20.1506 223.015 20.6563C223.884 21.162 225.101 21.4149 226.682 21.4149C228.088 21.4149 229.155 21.0593 229.898 20.3481C230.641 19.6369 231.012 18.7677 231.012 17.7325C231.012 16.9897 230.83 16.2706 230.459 15.5673C230.087 14.864 229.55 14.2713 228.847 13.7814L223.821 10.4783C222.707 9.69599 221.79 8.89787 221.055 8.06814C220.328 7.23842 219.957 6.29806 219.957 5.24707C219.957 4.48846 220.186 3.70615 220.66 2.90803C221.111 2.26795 221.782 1.7227 222.675 1.28808C223.568 0.845561 224.643 0.632202 225.891 0.632202C227.14 0.632202 228.341 0.766539 229.44 1.02731C230.538 1.28808 231.455 1.60417 232.174 1.97557V6.89072H231.826C231.771 5.56316 231.581 4.48056 231.273 3.64293C230.965 2.8053 230.38 2.14942 229.534 1.66739C228.689 1.18535 227.472 0.948289 225.891 0.948289C225.228 0.948289 224.603 1.11423 224.003 1.44613C223.41 1.77802 222.928 2.22054 222.557 2.76579C222.185 3.31104 222.004 3.9037 222.004 4.55168C222.004 5.19966 222.201 5.80022 222.588 6.42449C222.976 7.04876 223.592 7.63352 224.43 8.17877L229.4 11.4503C230.625 12.2721 231.526 13.1492 232.103 14.0975L232.11 14.0817Z" fill="#161637"/>
<path d="M236.48 16.5076C237.01 15.9545 237.768 15.4882 238.764 15.101C239.76 14.7138 241.214 14.2871 243.118 13.7972V12.1614C243.118 10.9366 242.897 9.95671 242.462 9.23762C242.028 8.51852 241.403 8.15502 240.605 8.15502C240.155 8.15502 239.689 8.26565 239.199 8.47901C238.827 8.65286 238.535 8.83461 238.322 9.01636C238.108 9.19811 237.974 9.35615 237.911 9.48258C237.855 9.60902 237.855 9.68014 237.911 9.70384C238.258 9.75916 238.527 9.9093 238.701 10.1464C238.875 10.3834 238.962 10.6363 238.962 10.905C238.962 11.2764 238.811 11.6004 238.527 11.869C238.29 12.0429 238.037 12.1298 237.768 12.1298C237.397 12.1298 237.089 11.9718 236.836 11.6636C236.662 11.4265 236.575 11.1578 236.575 10.8418C236.575 10.6837 236.607 10.5415 236.662 10.4071C237.128 9.5458 237.887 8.8267 238.946 8.24194C239.357 8.02858 239.807 7.87844 240.305 7.79152C240.803 7.7046 241.237 7.67299 241.609 7.68879C242.952 7.68879 243.893 8.19453 244.43 9.19811C244.967 10.2017 245.236 11.6478 245.236 13.5364V18.7992C245.236 19.2497 245.339 19.6527 245.544 20.0162C245.75 20.3797 246.066 20.5535 246.492 20.5535C246.69 20.5535 246.88 20.4824 247.061 20.3323C247.243 20.1821 247.37 19.9609 247.425 19.6448L247.717 19.7633C247.622 20.269 247.354 20.7274 246.927 21.1225C246.5 21.5176 245.963 21.723 245.323 21.723C244.778 21.723 244.28 21.5176 243.829 21.1067C243.379 20.6958 243.15 20.0636 243.126 19.2023C242.929 19.9451 242.454 20.5456 241.696 21.0118C240.937 21.4781 240.052 21.7151 239.033 21.7151C238.171 21.7151 237.405 21.4702 236.725 20.9723C236.046 20.4745 235.706 19.708 235.706 18.6807C235.706 17.7878 235.967 17.0608 236.496 16.4997L236.48 16.5076ZM239.056 15.7727C238.179 16.4286 237.737 17.2188 237.737 18.1592C237.737 18.9178 237.958 19.5262 238.393 19.9688C238.827 20.4192 239.452 20.6404 240.25 20.6404C241.554 20.6404 242.51 19.9767 243.118 18.6491V14.1133C241.285 14.5637 239.934 15.1089 239.056 15.7648V15.7727Z" fill="#161637"/>
<path d="M252.822 20.3481C252.877 20.5852 252.98 20.7511 253.13 20.8459C253.28 20.9407 253.541 21.0435 253.936 21.1383V21.4623H249.551V21.1383C249.938 21.0198 250.214 20.9091 250.372 20.7985C250.53 20.6879 250.625 20.5298 250.665 20.3165C250.704 20.1031 250.72 19.7238 250.72 19.1786V2.51289C250.72 1.98344 250.625 1.61204 250.428 1.39078C250.23 1.16952 249.843 1.02728 249.258 0.964065V0.640076L252.735 0V19.1786C252.735 19.7238 252.767 20.111 252.822 20.3481Z" fill="#161637"/>
<path d="M256.828 16.5076C257.358 15.9545 258.117 15.4882 259.112 15.101C260.108 14.7138 261.562 14.2871 263.466 13.7972V12.1614C263.466 10.9366 263.245 9.95671 262.81 9.23762C262.376 8.51852 261.752 8.15502 260.953 8.15502C260.503 8.15502 260.037 8.26565 259.547 8.47901C259.175 8.65286 258.883 8.83461 258.67 9.01636C258.456 9.19811 258.322 9.35615 258.259 9.48258C258.203 9.60902 258.203 9.68014 258.259 9.70384C258.606 9.75916 258.875 9.9093 259.049 10.1464C259.223 10.3834 259.31 10.6363 259.31 10.905C259.31 11.2764 259.16 11.6004 258.875 11.869C258.638 12.0429 258.385 12.1298 258.117 12.1298C257.745 12.1298 257.437 11.9718 257.184 11.6636C257.01 11.4265 256.923 11.1578 256.923 10.8418C256.923 10.6837 256.955 10.5415 257.01 10.4071C257.476 9.5458 258.235 8.8267 259.294 8.24194C259.705 8.02858 260.155 7.87844 260.653 7.79152C261.151 7.7046 261.586 7.67299 261.957 7.68879C263.3 7.68879 264.241 8.19453 264.778 9.19811C265.315 10.2017 265.584 11.6478 265.584 13.5364V18.7992C265.584 19.2497 265.687 19.6527 265.892 20.0162C266.098 20.3797 266.414 20.5535 266.841 20.5535C267.038 20.5535 267.228 20.4824 267.409 20.3323C267.591 20.1821 267.718 19.9609 267.773 19.6448L268.065 19.7633C267.971 20.269 267.702 20.7274 267.275 21.1225C266.848 21.5176 266.311 21.723 265.671 21.723C265.126 21.723 264.628 21.5176 264.178 21.1067C263.727 20.6958 263.498 20.0636 263.474 19.2023C263.277 19.9451 262.803 20.5456 262.044 21.0118C261.285 21.4781 260.4 21.7151 259.381 21.7151C258.52 21.7151 257.753 21.4702 257.073 20.9723C256.394 20.4745 256.054 19.708 256.054 18.6807C256.054 17.7878 256.315 17.0608 256.844 16.4997L256.828 16.5076ZM259.405 15.7727C258.527 16.4286 258.085 17.2188 258.085 18.1592C258.085 18.9178 258.306 19.5262 258.741 19.9688C259.175 20.4192 259.8 20.6404 260.598 20.6404C261.902 20.6404 262.858 19.9767 263.466 18.6491V14.1133C261.633 14.5637 260.282 15.1089 259.405 15.7648V15.7727Z" fill="#161637"/>
<path d="M278.828 16.3021C279.31 16.9975 279.547 17.6929 279.547 18.3962C279.547 19.0995 279.334 19.7475 278.907 20.356C278.591 20.7432 278.141 21.0751 277.532 21.3358C276.932 21.5966 276.205 21.7309 275.367 21.7309C274.213 21.7309 273.21 21.6203 272.34 21.4069C271.471 21.1936 270.807 20.9407 270.333 20.6483V16.5234H270.626C270.705 17.9853 271.06 19.1627 271.708 20.0636C272.348 20.9565 273.573 21.4069 275.359 21.4069C276.197 21.4069 276.829 21.2331 277.248 20.8933C277.666 20.5535 277.88 20.1189 277.88 19.5895C277.88 19.06 277.706 18.5227 277.35 17.9695C276.995 17.4164 276.536 16.9501 275.975 16.5787L273.02 14.7928C272.048 14.1132 271.329 13.4653 270.871 12.8647C270.412 12.2641 270.183 11.6557 270.183 11.0551C270.183 10.5257 270.333 9.99622 270.626 9.44306C270.878 8.95313 271.321 8.54222 271.953 8.20242C272.585 7.86263 273.391 7.68878 274.363 7.68878C275.454 7.68878 276.418 7.78361 277.24 7.96536C278.069 8.14711 278.694 8.36837 279.128 8.62124V12.3353H278.836C278.781 11.0867 278.425 10.0515 277.785 9.23761C277.145 8.41578 275.999 8.01277 274.363 8.01277C273.565 8.01277 272.957 8.18662 272.554 8.52641C272.143 8.86621 271.937 9.30082 271.937 9.83027C271.937 10.2965 272.103 10.7864 272.435 11.2922C272.767 11.7979 273.225 12.2404 273.81 12.6118L276.766 14.453C277.659 14.9983 278.346 15.6147 278.828 16.31V16.3021Z" fill="#161637"/>
<path d="M134.574 41.3521C134.827 41.605 135.175 41.7314 135.617 41.7314V41.9211H131.563V41.7314C131.966 41.7314 132.282 41.605 132.496 41.36C132.709 41.115 132.82 40.633 132.82 39.9218V30.2575L128.837 42.0791H128.663L123.811 31.3322V37.6223C123.811 38.6496 123.874 39.4635 124.001 40.0482C124.127 40.633 124.349 41.0597 124.665 41.3284C124.981 41.5971 125.415 41.7314 125.984 41.7314V41.9211H121.235V41.7314C121.875 41.7314 122.365 41.5971 122.705 41.3205C123.045 41.0439 123.282 40.6172 123.416 40.0324C123.55 39.4477 123.614 38.6417 123.614 37.6223V30.9845C123.416 30.6447 123.203 30.3997 122.958 30.2338C122.721 30.0678 122.515 29.973 122.334 29.9414C122.152 29.9098 121.938 29.8861 121.701 29.8703V29.6806H124.688L129.366 40.0245L132.812 29.6806H135.522V29.8703C135.103 29.8703 134.779 29.9809 134.542 30.2021C134.305 30.4234 134.187 30.8264 134.187 31.4033V39.9218C134.187 40.6172 134.313 41.0913 134.566 41.3442L134.574 41.3521Z" fill="#161637"/>
<path d="M143.772 41.1861C143.819 41.3205 143.906 41.4153 144.025 41.4627C144.143 41.518 144.333 41.5576 144.594 41.5971V41.7867L142.911 42.0633C142.911 42.0633 142.832 42.0791 142.792 42.0791C142.618 42.0791 142.523 42.0001 142.516 41.8341V40.3722C142.389 40.8385 142.097 41.2336 141.638 41.5734C141.18 41.9131 140.659 42.0791 140.082 42.0791C138.335 42.0791 137.458 41.2099 137.458 39.4714V35.4571C137.458 35.0146 137.442 34.7301 137.411 34.5878C137.379 34.4456 137.308 34.3587 137.197 34.3113C137.079 34.2638 136.842 34.2322 136.486 34.2243V34.0505L138.628 33.7344V39.4161C138.628 40.1036 138.809 40.6014 139.181 40.9254C139.552 41.2494 140.018 41.4153 140.587 41.4153C141.077 41.4153 141.48 41.281 141.812 41.0044C142.144 40.7357 142.373 40.388 142.516 39.9692V35.3781C142.516 34.975 142.508 34.7064 142.484 34.572C142.46 34.4377 142.397 34.3508 142.294 34.3034C142.192 34.2559 141.994 34.2243 141.702 34.2164V34.0426L143.717 33.7265V40.5382C143.717 40.8306 143.74 41.036 143.788 41.1703L143.772 41.1861Z" fill="#161637"/>
<path d="M148.118 41.2652C148.15 41.4074 148.213 41.5022 148.3 41.5575C148.387 41.6128 148.545 41.6761 148.782 41.7314V41.921H146.174V41.7314C146.403 41.6603 146.569 41.597 146.664 41.5338C146.759 41.4706 146.814 41.3758 146.838 41.2493C146.862 41.1229 146.87 40.8938 146.87 40.5698V30.6604C146.87 30.3444 146.814 30.1231 146.696 29.9888C146.577 29.8544 146.348 29.7675 146 29.7359V29.5462L148.071 29.1669V40.5698C148.071 40.8938 148.087 41.1229 148.126 41.2652H148.118Z" fill="#161637"/>
<path d="M154.424 41.1861C154.622 41.0281 154.756 40.8385 154.827 40.6172L154.969 40.6725C154.867 41.0676 154.653 41.3995 154.337 41.6682C154.021 41.9369 153.642 42.0791 153.199 42.0791C152.536 42.0791 152.046 41.8815 151.722 41.4943C151.398 41.1071 151.232 40.4117 151.232 39.4161V34.0821H150.347L150.331 33.8924H151.232V31.34L152.433 31.1662V33.8924H154.487L154.456 34.0821H152.441V39.3687C152.441 40.1194 152.559 40.6488 152.788 40.957C153.018 41.2652 153.349 41.4153 153.776 41.4153C154.021 41.4153 154.242 41.3363 154.44 41.1782L154.424 41.1861Z" fill="#161637"/>
<path d="M158.533 41.2651C158.565 41.4074 158.628 41.5022 158.715 41.5575C158.802 41.6128 158.96 41.6761 159.197 41.7314V41.921H156.589V41.7314C156.819 41.6603 156.985 41.597 157.079 41.5338C157.174 41.4706 157.23 41.3679 157.253 41.2414C157.277 41.1071 157.285 40.8779 157.285 40.5539V35.2516C157.285 34.9355 157.23 34.7142 157.119 34.5799C157.008 34.4456 156.779 34.3586 156.431 34.3112V34.1374L158.486 33.7344V40.546C158.486 40.8858 158.502 41.1229 158.541 41.2572L158.533 41.2651ZM157.19 30.9923C157.332 30.8501 157.498 30.7869 157.696 30.7869C157.901 30.7869 158.083 30.858 158.225 31.0002C158.367 31.1425 158.446 31.3242 158.446 31.5297C158.446 31.7272 158.367 31.9011 158.217 32.0433C158.067 32.1855 157.893 32.2567 157.696 32.2567C157.498 32.2567 157.332 32.1855 157.19 32.0433C157.048 31.9011 156.985 31.7272 156.985 31.5297C156.985 31.3084 157.056 31.1267 157.19 30.9923Z" fill="#161637"/>
<path d="M160.841 34.1374L162.911 33.7344V35.0541C163.156 34.6353 163.52 34.3113 164.002 34.0821C164.484 33.8529 164.966 33.7344 165.456 33.7344C166.254 33.7344 166.925 33.9241 167.471 34.3113C168.016 34.6906 168.419 35.2042 168.688 35.8522C168.956 36.4923 169.091 37.2035 169.091 37.9858C169.091 38.855 168.917 39.5978 168.577 40.2142C168.237 40.8306 167.763 41.2968 167.17 41.6129C166.57 41.929 165.89 42.0949 165.132 42.0949C164.262 42.0949 163.527 41.8499 162.927 41.3679V45.2084C162.927 45.5481 162.943 45.7773 162.966 45.9116C162.998 46.046 163.053 46.1408 163.14 46.1882C163.227 46.2435 163.393 46.2989 163.638 46.3542V46.5438H161.03V46.3542C161.26 46.2831 161.425 46.2198 161.52 46.1645C161.615 46.1092 161.67 46.0144 161.694 45.8879C161.718 45.7615 161.726 45.5323 161.726 45.2084V35.2121C161.726 34.896 161.67 34.6827 161.552 34.5562C161.433 34.4298 161.204 34.3587 160.857 34.3192V34.1453L160.841 34.1374ZM166.838 41.0518C167.352 40.4908 167.605 39.5583 167.605 38.2623C167.605 36.9664 167.368 35.9154 166.902 35.2279C166.435 34.5404 165.795 34.1927 164.997 34.1927C164.381 34.1927 163.891 34.3824 163.52 34.7696C163.148 35.1489 162.943 35.6625 162.911 36.3026V39.6215C162.943 40.3248 163.156 40.8859 163.543 41.2889C163.93 41.6919 164.436 41.8973 165.045 41.8973C165.732 41.8973 166.325 41.6129 166.838 41.0518Z" fill="#161637"/>
<path d="M173.129 41.2652C173.16 41.4074 173.223 41.5022 173.31 41.5575C173.397 41.6128 173.555 41.6761 173.792 41.7314V41.921H171.185V41.7314C171.414 41.6603 171.58 41.597 171.675 41.5338C171.769 41.4706 171.825 41.3758 171.848 41.2493C171.872 41.1229 171.88 40.8938 171.88 40.5698V30.6604C171.88 30.3444 171.825 30.1231 171.706 29.9888C171.588 29.8544 171.359 29.7675 171.011 29.7359V29.5462L173.081 29.1669V40.5698C173.081 40.8938 173.097 41.1229 173.137 41.2652H173.129Z" fill="#161637"/>
<path d="M177.649 41.2651C177.68 41.4074 177.743 41.5022 177.83 41.5575C177.917 41.6128 178.075 41.6761 178.312 41.7314V41.921H175.705V41.7314C175.934 41.6603 176.1 41.597 176.195 41.5338C176.289 41.4706 176.345 41.3679 176.368 41.2414C176.392 41.1071 176.4 40.8779 176.4 40.5539V35.2516C176.4 34.9355 176.345 34.7142 176.234 34.5799C176.123 34.4456 175.894 34.3586 175.547 34.3112V34.1374L177.601 33.7344V40.546C177.601 40.8858 177.617 41.1229 177.657 41.2572L177.649 41.2651ZM176.313 30.9923C176.455 30.8501 176.621 30.7869 176.819 30.7869C177.024 30.7869 177.206 30.858 177.348 31.0002C177.491 31.1425 177.57 31.3242 177.57 31.5297C177.57 31.7272 177.491 31.9011 177.34 32.0433C177.19 32.1855 177.016 32.2567 176.819 32.2567C176.621 32.2567 176.455 32.1855 176.313 32.0433C176.171 31.9011 176.108 31.7272 176.108 31.5297C176.108 31.3084 176.179 31.1267 176.313 30.9923Z" fill="#161637"/>
<path d="M186.863 40.8068C186.633 41.1624 186.294 41.4627 185.843 41.7077C185.393 41.9606 184.848 42.0791 184.2 42.0791C183.583 42.0791 182.991 41.9211 182.406 41.6129C181.829 41.2968 181.355 40.8306 180.991 40.2142C180.628 39.5978 180.446 38.8392 180.446 37.9463C180.446 37.2035 180.612 36.516 180.952 35.868C181.284 35.2279 181.766 34.7064 182.39 34.3192C183.006 33.932 183.725 33.7344 184.539 33.7344C185.353 33.7344 185.97 33.8687 186.333 34.1374C186.697 34.4061 186.902 34.6669 186.957 34.9355C186.989 35.0067 187.013 35.0857 187.013 35.1805C187.013 35.3306 186.95 35.4808 186.823 35.6309C186.657 35.7732 186.483 35.8364 186.302 35.8364C186.128 35.8364 185.985 35.7811 185.867 35.6625C185.717 35.5124 185.638 35.3465 185.638 35.1568C185.638 34.9671 185.709 34.817 185.843 34.7064C185.97 34.5799 186.12 34.5167 186.294 34.5167C186.373 34.5246 186.349 34.4772 186.215 34.3666C186.08 34.256 185.875 34.1532 185.59 34.0584C185.306 33.9636 184.958 33.9162 184.539 33.9162C184.192 33.9162 183.812 34.0189 183.394 34.2164C182.975 34.4219 182.603 34.8091 182.279 35.3939C181.955 35.9786 181.789 36.7767 181.789 37.7961C181.789 38.6179 181.932 39.2975 182.208 39.8349C182.485 40.3722 182.84 40.7673 183.267 41.0202C183.694 41.2731 184.144 41.3916 184.603 41.3916C185.251 41.3916 185.796 41.2178 186.246 40.8701C186.689 40.5224 186.997 40.1273 187.163 39.6847L187.305 39.7401C187.25 40.0878 187.1 40.4354 186.871 40.791L186.863 40.8068Z" fill="#161637"/>
<path d="M189.786 38.9814C190.102 38.6495 190.553 38.373 191.146 38.1438C191.738 37.9146 192.6 37.6618 193.737 37.3694V36.3974C193.737 35.6704 193.603 35.0857 193.342 34.6589C193.082 34.2322 192.71 34.0189 192.236 34.0189C191.967 34.0189 191.691 34.0821 191.398 34.2085C191.177 34.3113 191.003 34.4219 190.877 34.5325C190.75 34.6431 190.671 34.738 190.632 34.8091C190.592 34.8802 190.6 34.9276 190.632 34.9434C190.837 34.975 190.995 35.062 191.098 35.2042C191.201 35.3464 191.256 35.4966 191.256 35.6546C191.256 35.8759 191.169 36.0655 190.995 36.2315C190.853 36.3342 190.703 36.3895 190.545 36.3895C190.324 36.3895 190.142 36.2947 189.992 36.1129C189.889 35.9707 189.834 35.8127 189.834 35.623C189.834 35.5282 189.85 35.4413 189.889 35.3622C190.166 34.8565 190.616 34.4219 191.248 34.0742C191.493 33.9477 191.762 33.8608 192.054 33.8055C192.347 33.7502 192.607 33.7344 192.829 33.7423C193.627 33.7423 194.188 34.0426 194.504 34.6352C194.82 35.2279 194.986 36.0892 194.986 37.2192V40.3485C194.986 40.6172 195.049 40.8542 195.168 41.0676C195.286 41.281 195.476 41.3916 195.729 41.3916C195.847 41.3916 195.958 41.3442 196.069 41.2573C196.179 41.1703 196.25 41.036 196.282 40.8463L196.456 40.9175C196.4 41.2177 196.242 41.4864 195.99 41.7235C195.737 41.9606 195.413 42.0791 195.033 42.0791C194.709 42.0791 194.417 41.9606 194.148 41.7156C193.88 41.4706 193.745 41.0913 193.73 40.5856C193.611 41.0281 193.327 41.3837 192.876 41.6603C192.426 41.9368 191.896 42.0791 191.296 42.0791C190.782 42.0791 190.332 41.9289 189.921 41.6366C189.51 41.3442 189.312 40.8859 189.312 40.2695C189.312 39.74 189.47 39.3054 189.778 38.9735L189.786 38.9814ZM191.319 38.5468C190.798 38.934 190.537 39.4082 190.537 39.9613C190.537 40.4117 190.671 40.7752 190.924 41.036C191.185 41.3047 191.556 41.439 192.031 41.439C192.805 41.439 193.374 41.0439 193.737 40.2537V37.559C192.647 37.8277 191.841 38.1517 191.319 38.5389V38.5468Z" fill="#161637"/>
<path d="M205.053 41.2573C205.085 41.3995 205.148 41.5101 205.243 41.5734C205.338 41.6366 205.488 41.6998 205.709 41.7551V41.929H203.117V41.7551C203.347 41.684 203.512 41.6129 203.607 41.5497C203.702 41.4864 203.757 41.3758 203.781 41.2494C203.805 41.115 203.813 40.8859 203.813 40.5619V36.6503C203.813 35.9549 203.639 35.4097 203.299 35.0067C202.959 34.6036 202.477 34.4061 201.845 34.4061C201.395 34.4061 200.992 34.572 200.644 34.896C200.296 35.22 200.059 35.5677 199.933 35.9391V40.5777C199.933 40.9017 199.949 41.1308 199.988 41.2731C200.028 41.4153 200.083 41.5101 200.17 41.5655C200.257 41.6208 200.415 41.684 200.644 41.7393V41.929H198.036V41.7393C198.265 41.6682 198.431 41.605 198.526 41.5418C198.621 41.4785 198.676 41.3837 198.7 41.2573C198.724 41.1308 198.732 40.9017 198.732 40.5777V35.2595C198.732 34.9434 198.676 34.7222 198.558 34.5878C198.439 34.4535 198.21 34.3666 197.862 34.3192V34.1453L199.933 33.7423V35.5361C200.107 35.0383 200.439 34.6115 200.928 34.2639C201.418 33.9162 201.94 33.7423 202.485 33.7423C203.26 33.7423 203.876 33.9715 204.318 34.4219C204.761 34.8723 204.99 35.5914 204.99 36.5792V40.5619C204.99 40.8859 205.006 41.1229 205.046 41.2652L205.053 41.2573Z" fill="#161637"/>
<path d="M207.993 35.5993C208.333 34.983 208.807 34.5246 209.408 34.2085C210.008 33.8925 210.696 33.7423 211.462 33.7423C212.3 33.7423 213.019 33.9715 213.635 34.4377V30.6842C213.635 30.3681 213.572 30.1468 213.453 30.0046C213.335 29.8624 213.098 29.7754 212.75 29.7438V29.5542L214.805 29.1749V40.7357C214.805 41.0281 214.828 41.2336 214.884 41.3521C214.939 41.4706 215.018 41.5497 215.137 41.5813C215.255 41.6129 215.437 41.6208 215.69 41.605V41.7788L214.125 42.0712L214.007 42.087C213.888 42.087 213.801 42.0554 213.738 41.9922C213.675 41.929 213.643 41.8499 213.643 41.7551V40.8543C213.39 41.2336 213.019 41.5418 212.545 41.7551C212.071 41.9764 211.596 42.087 211.138 42.087C210.324 42.087 209.652 41.8974 209.107 41.5102C208.562 41.1308 208.159 40.6093 207.89 39.9613C207.622 39.3134 207.487 38.5943 207.487 37.804C207.487 36.9506 207.661 36.2078 208.001 35.5993H207.993ZM213.343 35.0304C213.145 34.6748 212.884 34.4061 212.56 34.2165C212.236 34.0268 211.889 33.932 211.517 33.932C210.83 33.932 210.237 34.2085 209.724 34.7538C209.21 35.307 208.957 36.2315 208.957 37.5275C208.957 38.8234 209.194 39.8744 209.66 40.5777C210.127 41.281 210.767 41.6287 211.565 41.6287C212.142 41.6287 212.632 41.439 213.035 41.0518C213.438 40.6725 213.635 40.1826 213.635 39.5899V36.2552C213.635 35.789 213.54 35.386 213.343 35.0304Z" fill="#161637"/>
<path d="M223.426 34.2955C224.019 34.6669 224.461 35.1647 224.753 35.789C225.046 36.4132 225.196 37.1244 225.196 37.9068C225.196 38.6891 225.046 39.3845 224.753 40.0166C224.461 40.6488 224.011 41.1466 223.426 41.518C222.833 41.8894 222.106 42.0712 221.253 42.0712C220.399 42.0712 219.688 41.8894 219.088 41.518C218.487 41.1466 218.044 40.6488 217.752 40.0166C217.46 39.3845 217.31 38.6812 217.31 37.9068C217.31 37.1323 217.46 36.4132 217.752 35.789C218.044 35.1647 218.495 34.6669 219.088 34.2955C219.68 33.9241 220.407 33.7423 221.253 33.7423C222.098 33.7423 222.833 33.932 223.426 34.2955ZM221.253 41.8894C222.027 41.8894 222.644 41.5892 223.102 40.9965C223.56 40.3959 223.789 39.3687 223.789 37.9068C223.789 36.4449 223.56 35.4176 223.102 34.817C222.644 34.2243 222.027 33.9241 221.253 33.9241C219.546 33.9241 218.7 35.2516 218.7 37.9068C218.7 40.5619 219.554 41.8894 221.253 41.8894Z" fill="#161637"/>
<path d="M237.8 40.9728C238.274 40.6488 238.574 40.2695 238.701 39.8428L238.859 39.8981C238.803 40.1984 238.653 40.5224 238.416 40.8543C238.179 41.1941 237.847 41.4785 237.421 41.7235C236.994 41.9685 236.48 42.087 235.888 42.087C235.192 42.087 234.568 41.9132 234.007 41.5655C233.454 41.2178 233.019 40.7357 232.703 40.1115C232.387 39.4951 232.237 38.7839 232.237 38.0016C232.237 37.1402 232.395 36.3895 232.711 35.7495C233.027 35.1094 233.47 34.6115 234.023 34.2639C234.576 33.9162 235.192 33.7423 235.864 33.7423C236.48 33.7423 237.033 33.8924 237.523 34.1848C238.013 34.4772 238.408 34.9276 238.701 35.5361C238.993 36.1367 239.135 36.8795 239.135 37.7645H233.556C233.564 39.0526 233.825 39.9929 234.323 40.5777C234.821 41.1703 235.485 41.4627 236.306 41.4627C236.828 41.4627 237.326 41.2968 237.8 40.9728ZM237.958 37.5433C237.958 36.7056 237.839 36.026 237.61 35.4808C237.381 34.9434 237.097 34.5483 236.773 34.2955C236.449 34.0505 236.14 33.9241 235.848 33.9241C235.5 33.9241 235.145 34.0663 234.789 34.3429C234.426 34.6194 234.133 35.0304 233.904 35.5756C233.675 36.1209 233.556 36.7767 233.556 37.5433H237.958Z" fill="#161637"/>
<path d="M243.055 41.2652C243.087 41.4074 243.15 41.5022 243.237 41.5575C243.324 41.6128 243.482 41.6761 243.719 41.7314V41.921H241.111V41.7314C241.34 41.6603 241.506 41.597 241.601 41.5338C241.696 41.4706 241.751 41.3758 241.775 41.2493C241.798 41.1229 241.806 40.8938 241.806 40.5698V30.6604C241.806 30.3444 241.751 30.1231 241.633 29.9888C241.514 29.8544 241.285 29.7675 240.937 29.7359V29.5462L243.007 29.1669V40.5698C243.007 40.8938 243.023 41.1229 243.063 41.2652H243.055Z" fill="#161637"/>
<path d="M250.112 29.5462L252.182 29.1669V35.0778C252.427 34.6589 252.79 34.335 253.28 34.0979C253.77 33.8608 254.252 33.7423 254.742 33.7423C255.54 33.7423 256.212 33.9398 256.757 34.327C257.303 34.7143 257.706 35.2279 257.966 35.868C258.227 36.508 258.361 37.2034 258.361 37.9699C258.361 38.8155 258.188 39.5504 257.848 40.1747C257.508 40.7989 257.034 41.2731 256.441 41.597C255.849 41.921 255.161 42.087 254.402 42.087C253.478 42.087 252.68 41.7946 252.024 41.2177C251.818 41.4627 251.597 41.6603 251.36 41.8104C251.131 41.9605 251.012 41.9763 251.012 41.842V30.6446C251.012 30.3285 250.949 30.1152 250.831 29.9809C250.712 29.8544 250.475 29.7754 250.127 29.7359V29.5462H250.112ZM255.532 41.5417C255.912 41.3126 256.236 40.9254 256.489 40.3801C256.741 39.8349 256.868 39.1237 256.868 38.2386C256.868 36.919 256.639 35.9154 256.173 35.2437C255.706 34.5641 255.074 34.2243 254.26 34.2243C253.62 34.2243 253.114 34.4298 252.735 34.8407C252.356 35.2516 252.174 35.8048 252.174 36.5001V39.3528C252.174 40.143 252.372 40.7594 252.767 41.2098C253.162 41.6603 253.683 41.8894 254.331 41.8894C254.75 41.8894 255.145 41.7709 255.532 41.5417Z" fill="#161637"/>
<path d="M262.415 41.2651C262.447 41.4074 262.51 41.5022 262.597 41.5575C262.684 41.6128 262.842 41.6761 263.079 41.7314V41.921H260.471V41.7314C260.701 41.6603 260.866 41.597 260.961 41.5338C261.056 41.4706 261.111 41.3679 261.135 41.2414C261.159 41.1071 261.167 40.8779 261.167 40.5539V35.2516C261.167 34.9355 261.111 34.7142 261.001 34.5799C260.89 34.4456 260.661 34.3586 260.313 34.3112V34.1374L262.368 33.7344V40.546C262.368 40.8858 262.384 41.1229 262.423 41.2572L262.415 41.2651ZM261.08 30.9923C261.222 30.8501 261.388 30.7869 261.586 30.7869C261.791 30.7869 261.973 30.858 262.115 31.0002C262.257 31.1425 262.336 31.3242 262.336 31.5297C262.336 31.7272 262.257 31.9011 262.107 32.0433C261.957 32.1855 261.783 32.2567 261.586 32.2567C261.388 32.2567 261.222 32.1855 261.08 32.0433C260.938 31.9011 260.874 31.7272 260.874 31.5297C260.874 31.3084 260.946 31.1267 261.08 30.9923Z" fill="#161637"/>
<path d="M270.641 40.9728C271.115 40.6488 271.416 40.2695 271.542 39.8428L271.7 39.8981C271.645 40.1984 271.495 40.5224 271.258 40.8543C271.021 41.1941 270.689 41.4785 270.262 41.7235C269.835 41.9685 269.322 42.087 268.729 42.087C268.034 42.087 267.409 41.9132 266.848 41.5655C266.295 41.2178 265.861 40.7357 265.544 40.1115C265.228 39.4951 265.078 38.7839 265.078 38.0016C265.078 37.1402 265.236 36.3895 265.552 35.7495C265.868 35.1094 266.311 34.6115 266.864 34.2639C267.417 33.9162 268.034 33.7423 268.705 33.7423C269.322 33.7423 269.875 33.8924 270.365 34.1848C270.855 34.4772 271.25 34.9276 271.542 35.5361C271.835 36.1367 271.977 36.8795 271.977 37.7645H266.398C266.406 39.0526 266.667 39.9929 267.164 40.5777C267.662 41.1703 268.326 41.4627 269.148 41.4627C269.669 41.4627 270.167 41.2968 270.641 40.9728ZM270.799 37.5433C270.799 36.7056 270.681 36.026 270.452 35.4808C270.223 34.9434 269.938 34.5483 269.614 34.2955C269.29 34.0505 268.982 33.9241 268.69 33.9241C268.342 33.9241 267.986 34.0663 267.631 34.3429C267.267 34.6194 266.975 35.0304 266.746 35.5756C266.516 36.1209 266.398 36.7767 266.398 37.5433H270.799Z" fill="#161637"/>
<path d="M280.74 41.2573C280.772 41.3995 280.835 41.5101 280.93 41.5734C281.025 41.6366 281.175 41.6998 281.396 41.7551V41.929H278.804V41.7551C279.034 41.684 279.199 41.6129 279.294 41.5497C279.389 41.4864 279.444 41.3758 279.468 41.2494C279.492 41.115 279.5 40.8859 279.5 40.5619V36.6503C279.5 35.9549 279.326 35.4097 278.986 35.0067C278.646 34.6036 278.164 34.4061 277.532 34.4061C277.082 34.4061 276.679 34.572 276.331 34.896C275.983 35.22 275.746 35.5677 275.62 35.9391V40.5777C275.62 40.9017 275.636 41.1308 275.675 41.2731C275.715 41.4153 275.77 41.5101 275.857 41.5655C275.944 41.6208 276.102 41.684 276.331 41.7393V41.929H273.723V41.7393C273.952 41.6682 274.118 41.605 274.213 41.5418C274.308 41.4785 274.363 41.3837 274.387 41.2573C274.411 41.1308 274.419 40.9017 274.419 40.5777V35.2595C274.419 34.9434 274.363 34.7222 274.245 34.5878C274.126 34.4535 273.897 34.3666 273.549 34.3192V34.1453L275.62 33.7423V35.5361C275.794 35.0383 276.126 34.6115 276.615 34.2639C277.105 33.9162 277.627 33.7423 278.172 33.7423C278.947 33.7423 279.563 33.9715 280.005 34.4219C280.448 34.8723 280.677 35.5914 280.677 36.5792V40.5619C280.677 40.8859 280.693 41.1229 280.733 41.2652L280.74 41.2573Z" fill="#161637"/>
<path d="M58.887 39.985C59.7246 40.8226 60.8625 41.2414 62.3165 41.2414V41.8657H49.0013V41.2414C50.3368 41.2414 51.3562 40.8305 52.0595 40.0166C52.7628 39.1948 53.1184 37.6301 53.1184 35.3069V3.53226L40.0324 42.3793H39.4634L23.5247 7.07244V27.7524C23.5247 31.1424 23.7302 33.7976 24.149 35.7257C24.5678 37.6459 25.2948 39.0525 26.3221 39.9218C27.3494 40.7989 28.7955 41.2335 30.6604 41.2335V41.8578H15.0615V41.2335C17.1556 41.2335 18.7676 40.7831 19.8898 39.8901C21.0119 38.9972 21.7942 37.5827 22.2288 35.6625C22.6634 33.7423 22.8847 31.1029 22.8847 27.7524V5.92662C22.2367 4.82032 21.5255 4.00639 20.7432 3.46905C19.9609 2.9396 19.2734 2.61561 18.6886 2.49708C18.096 2.38645 17.4006 2.30743 16.6024 2.26792V1.63574H26.4327L41.8025 35.6309L53.1184 1.64364H62.032V2.27582C60.665 2.27582 59.5824 2.63932 58.8079 3.35842C58.0256 4.08541 57.6384 5.39718 57.6384 7.3016V35.299C57.6384 37.5827 58.0572 39.1473 58.8949 39.985H58.887Z" fill="#161637"/>
<path d="M89.1997 27.4442C90.3218 29.2933 90.8829 31.1504 90.8829 33.0153C90.8829 34.7695 90.4641 36.3263 89.6264 37.7013C88.8678 38.9972 87.5561 40.1035 85.7149 41.0123C83.8658 41.9289 81.5188 42.3872 78.6582 42.3872C75.7976 42.3872 73.4033 42.0949 71.2302 41.5022C69.0571 40.9095 67.3265 40.1825 66.0306 39.3054V28.3372H66.5995C66.7101 31.4585 67.1211 33.9872 67.8244 35.9075C68.5276 37.8277 69.7288 39.2896 71.4198 40.2774C73.1109 41.2651 75.5053 41.763 78.5871 41.763C81.3292 41.763 83.4232 41.0676 84.8693 39.6768C86.3154 38.286 87.0424 36.5791 87.0424 34.5641C87.0424 33.118 86.6789 31.7035 85.9598 30.3364C85.2328 28.9615 84.1898 27.7998 82.8148 26.8516L72.9845 20.3955C70.8114 18.8704 69.0097 17.2979 67.5873 15.6858C66.157 14.0659 65.4458 12.2326 65.4458 10.1701C65.4458 8.68448 65.9041 7.15937 66.8208 5.60264C67.6979 4.34619 69.0097 3.2873 70.764 2.43387C72.5182 1.58043 74.6123 1.14581 77.0462 1.14581C79.4801 1.14581 81.8349 1.40658 83.9843 1.92023C86.1337 2.43387 87.9196 3.05024 89.3262 3.77724V13.3784H88.6387C88.528 10.7865 88.1645 8.67658 87.5561 7.03293C86.9476 5.39718 85.8097 4.10913 84.1581 3.17667C82.4987 2.24421 80.128 1.77799 77.0462 1.77799C75.7502 1.77799 74.5254 2.10198 73.3638 2.74995C72.2022 3.39793 71.2618 4.25137 70.5348 5.31816C69.8078 6.38495 69.4522 7.54657 69.4522 8.80302C69.4522 10.0595 69.8315 11.2369 70.598 12.4617C71.3566 13.6787 72.5578 14.8245 74.1935 15.8913L83.9053 22.292C86.3075 23.8883 88.0697 25.6188 89.1918 27.46L89.1997 27.4442Z" fill="#161637"/>
<path d="M9.48257 5.94242C9.37194 4.45681 9.04795 3.43743 8.51061 2.88428C7.97326 2.33113 7.00919 2.05455 5.5947 2.05455V1.4856H18.5622V2.05455C17.2267 2.05455 16.1678 2.48917 15.3934 3.36631C14.6111 4.24345 14.2239 5.55521 14.2239 7.30949V31.3084C14.2239 37.6301 13.0702 42.3635 10.7627 45.5086C8.45529 48.6536 4.92302 50.566 0.165913 51.2535L-0.00793457 50.6845C2.88426 49.6177 5.2233 47.7133 6.99339 44.9712C8.76348 42.2292 9.64852 38.041 9.64852 32.3989V14.2871C9.64852 10.2096 9.5932 7.42803 9.47467 5.94242H9.48257Z" fill="#161637"/>
</g>
<defs>
<clipPath id="clip0_3897_790">
<rect width="281.404" height="51.2456" fill="white"/>
</clipPath>
</defs>
</svg>
